<?xml version="1.0" encoding="UTF-8"?>
<!DOCTYPE svg PUBLIC "-//W3C//DTD SVG 1.1//EN" "http://www.w3.org/Graphics/SVG/1.1/DTD/svg11.dtd">
<!-- Creator: CorelDRAW X7 -->
<svg xmlns="http://www.w3.org/2000/svg" xml:space="preserve" width="0.523394in" height="0.330031in" version="1.1" style="shape-rendering:geometricPrecision; text-rendering:geometricPrecision; image-rendering:optimizeQuality; fill-rule:evenodd; clip-rule:evenodd"
viewBox="0 0 36 23"
 xmlns:xlink="http://www.w3.org/1999/xlink">
 <defs>
  <style type="text/css">
   <![CDATA[
    .fil0 {fill:#00195E}
   ]]>
  </style>
 </defs>
 <g id="Layer_x0020_1">
  <metadata id="CorelCorpID_0Corel-Layer"/>
  <path class="fil0" d="M9 12l0 10c0,1 1,1 1,1l16 0c0,0 1,0 1,0 0,-1 0,-9 0,-11 0,0 -1,0 -1,0 0,0 0,0 0,0l-1 0c-1,0 -1,0 -1,0 0,0 0,0 0,0 -1,0 -1,0 -2,0 0,0 0,0 0,0 -1,0 -4,0 -4,0 0,0 0,0 -1,0 0,0 -2,0 -3,0 0,0 0,0 0,0 -1,0 -2,0 -3,0 0,0 0,0 0,0 0,0 0,0 0,0 -1,0 -2,0 -2,0zm-6 8c0,1 1,2 0,2 0,0 0,0 0,0 0,0 0,0 -1,0l-1 1c0,0 0,0 0,0 0,0 0,0 1,0 0,0 0,0 1,0 0,0 0,0 0,0l3 0c0,0 0,0 0,0l-1 -1c0,0 0,0 0,0 0,0 0,0 0,0 -1,0 -1,0 -1,0 0,-1 0,-1 0,-1l0 -4c0,0 0,0 -1,0 0,0 0,1 0,1 0,1 0,1 0,2zm27 3c0,0 0,0 0,0 1,0 1,0 1,0 0,0 0,0 0,0 1,0 1,0 2,0 0,0 0,0 1,0 0,0 1,0 1,0 1,0 1,0 1,0 0,0 0,0 0,0 0,-1 0,0 -1,0 -1,-1 0,-1 -1,-1 0,0 0,0 -1,0 0,-1 0,-3 0,-4 0,0 0,0 0,0 0,0 0,-1 0,-1 0,0 0,0 0,0 0,1 0,3 0,4 0,0 0,0 0,0 0,0 0,1 0,1 0,0 -1,0 -1,0l0 0c0,0 0,0 0,0 0,0 0,0 -1,0 0,0 0,0 0,1 0,0 0,0 -1,0zm-3 -21c0,0 0,0 0,0 0,0 0,1 0,1 0,0 0,0 1,0 0,0 0,0 0,0 0,0 1,0 1,0 1,0 1,0 1,0 0,0 0,-1 0,-1 0,0 0,0 0,-1 0,0 0,0 0,0 0,0 0,0 0,0 0,0 0,-1 0,-1 -1,0 -1,0 -1,0 -1,0 -1,0 -1,1 -1,0 -1,1 -1,1zm-10 0c0,0 0,0 0,0 0,0 0,0 0,1 0,0 0,0 0,0 1,0 1,0 2,0 0,0 0,0 1,0 0,-1 0,-1 0,-1 0,0 0,-1 0,-1 0,0 -1,-1 -1,-1 -1,0 -1,0 -2,0l0 0c0,0 0,0 0,1 0,0 0,0 0,0 0,0 0,0 0,0 0,0 0,1 0,1zm-9 1c0,0 1,0 1,0 0,0 0,0 0,0 0,0 0,0 0,0 1,-1 1,-1 1,-1 0,-1 0,-1 0,-1l-1 0c0,0 0,0 0,0 0,-1 0,-1 0,-1 -1,0 -1,0 -1,0 -1,0 -2,0 -2,1 0,0 0,1 0,1 0,0 0,0 0,0 0,0 0,0 0,0l1 1 0 0c1,0 1,0 1,0zm22 13l4 0c0,0 0,0 0,0 0,0 0,0 1,0 0,0 0,0 0,0 0,0 0,0 0,0 0,-1 1,-1 1,-1l0 -1c0,0 0,0 0,0 0,-1 0,-1 0,-1 0,0 0,-3 0,-4 0,-1 1,-1 0,-1 0,0 0,0 0,0 0,1 0,5 0,5l-1 1c0,0 0,1 -1,1 0,0 0,0 0,0 -1,0 0,0 -1,0 0,0 0,0 0,0 0,0 -1,0 -2,0 -1,0 -1,0 -1,1 0,0 0,0 0,0zm-30 -8c0,0 0,2 0,2 0,1 0,1 0,1 0,1 0,1 0,1 0,1 0,1 0,1l0 1c0,0 0,0 0,0 1,1 1,1 1,1 0,0 0,0 0,0l0 0c0,0 1,1 1,1 1,0 1,0 1,0 0,0 3,0 3,0 0,0 1,0 1,0l0 0c0,-1 0,-1 0,-1 -1,0 -4,0 -4,0 0,0 0,0 0,0 0,0 -1,0 -1,0l0 0c0,-1 -1,-1 -1,-2 0,0 0,-1 0,-1l0 -4c0,0 0,-1 0,-1 -1,0 -1,1 -1,1zm14 -3l0 6c0,0 0,0 1,0 0,1 1,0 2,0 0,0 1,0 1,0 0,0 0,-1 0,-1 0,0 0,0 0,0 0,0 0,0 -1,0 0,0 1,0 0,-1 0,0 -1,0 -1,0l0 -2c0,0 1,0 1,0l3 0c0,0 0,0 0,1l0 3c0,1 1,0 1,0 1,0 1,0 1,0 0,0 0,-5 0,-6 0,0 0,0 0,0 0,0 0,0 0,-1 0,0 -2,0 -3,0 0,0 0,0 0,0 0,0 -1,0 -1,0l-2 0c0,0 -1,0 -1,0 -1,0 -1,1 -1,1zm-12 7c0,0 0,0 0,1 0,0 0,0 0,0 0,0 0,0 0,1 0,0 0,0 0,0l1 0c0,0 0,0 0,0 1,0 0,0 1,0 1,0 1,0 2,0 0,0 1,0 1,1 0,0 1,0 1,0 0,1 0,5 0,6l0 1c0,0 0,1 1,1 0,0 0,0 0,-1 0,0 0,-2 0,-3 0,-1 0,-3 0,-4 0,-3 0,-3 -1,-3 0,0 0,0 -1,0 0,0 0,0 0,0l0 0c0,-1 1,-1 2,-1 0,0 0,0 0,0 0,0 0,0 1,0 1,1 0,1 1,0 0,0 0,0 1,0 0,0 0,0 0,-1 0,0 -1,0 -1,0 0,-1 -3,0 -3,-1 -1,0 0,0 0,-1l0 -1c0,0 0,0 0,0 0,-1 1,-1 1,-1 0,-1 -1,-1 -1,-1 0,0 0,0 0,0 0,-1 0,0 0,-1 -1,0 -1,0 -2,0 0,0 -1,0 -2,1 0,0 0,0 0,1 0,0 0,0 0,0 0,0 0,0 0,0 0,1 0,1 -1,1 0,0 0,0 0,0 0,0 0,0 0,1 0,0 0,0 0,1 0,0 0,0 0,0 0,0 0,0 0,1 0,0 -1,0 -1,0 0,0 0,0 0,0 0,0 0,1 0,1 0,0 0,0 0,0 0,0 0,0 0,1 0,0 0,0 0,0zm26 -7l0 1 0 1c0,0 0,0 0,1 0,0 0,0 1,0l0 0c0,1 0,1 0,1 0,0 0,0 0,0 -1,1 -2,0 -3,0 0,0 -1,0 -1,1 0,0 0,0 0,1 0,0 0,0 0,0 1,1 3,0 3,0 0,0 1,0 1,0l0 0c1,0 1,1 1,1 0,0 0,0 0,0l-1 0c-1,0 -1,0 -1,0 0,0 0,0 0,0 0,1 0,2 0,3l0 1c0,0 0,1 0,1 0,1 0,4 0,5 0,0 0,0 0,1 0,0 0,0 0,0 0,0 0,-1 1,-1 0,0 0,0 0,0 0,0 0,0 0,-1 0,0 0,-6 0,-6 0,0 0,0 0,0 1,0 0,0 1,0 0,0 0,0 0,0 0,0 0,0 0,0 1,0 1,0 1,0 0,0 0,0 0,0 2,0 1,0 2,0 0,0 0,0 0,-1l2 0 0 -1c0,0 0,0 0,0 0,0 0,0 0,0 0,-1 0,-1 0,-1 0,-1 0,-1 0,-1 -1,0 0,0 -1,-1 0,0 0,0 0,0 0,0 0,-1 0,-1 0,0 0,0 0,-1l-1 -1c0,0 0,0 0,0 0,0 0,0 0,0 0,-1 0,0 0,-1l0 0c-1,-1 -1,-1 -1,-2 -1,0 -1,0 -1,0 0,0 0,0 0,0 -1,0 -1,0 -2,0 0,0 0,0 -1,1 0,0 0,0 0,0z"/>
 </g>
</svg>
